<svg width="112" height="112" viewBox="0 0 112 112" fill="none" xmlns="http://www.w3.org/2000/svg">
<g clip-path="url(#clip0_5_3)">
<path d="M56 112C86.9279 112 112 86.9279 112 56C112 25.0721 86.9279 0 56 0C25.0721 0 0 25.0721 0 56C0 86.9279 25.0721 112 56 112Z" fill="#DC0032"/>
<path d="M99.3888 40.2192C101.181 45.1416 102.161 50.4588 102.161 56C102.161 61.5412 101.181 66.8584 99.3888 71.7808L105.58 74.0348C107.629 68.4068 108.746 62.3336 108.746 55.9972C108.746 49.6608 107.629 43.5876 105.58 37.9596L99.3888 40.2136V40.2192ZM8.26561 78.2852C16.6628 96.2556 34.8992 108.707 56.042 108.707C77.1848 108.707 95.424 96.2556 103.818 78.2852L97.846 75.4992C90.4988 91.224 74.5416 102.119 56.042 102.119C37.5424 102.119 21.5852 91.224 14.238 75.4992L8.26561 78.2852ZM12.6952 40.2192L6.50161 37.9652C4.45201 43.5932 3.33481 49.6664 3.33481 56.0028C3.33481 62.3392 4.45201 68.4124 6.50161 74.0404L12.6952 71.7864C10.9032 66.864 9.92321 61.5468 9.92321 56.0056C9.92321 50.4644 10.9004 45.1472 12.6952 40.2248M103.818 33.7148C95.424 15.7444 77.1876 3.2928 56.042 3.2928C34.8964 3.2928 16.6628 15.7444 8.26561 33.7148L14.238 36.5008C21.5852 20.776 37.5424 9.8812 56.042 9.8812C74.5416 9.8812 90.5016 20.776 97.846 36.5008L103.818 33.7148Z" fill="white"/>
<path d="M45.9396 61.8296C44.94 61.8296 44.0636 61.7092 42.8652 61.4292V50.5764C43.8564 50.3496 44.8392 50.1704 45.9396 50.1704C48.9328 50.1704 50.372 51.5284 50.372 56C50.372 60.4716 48.9356 61.8296 45.9396 61.8296ZM46.8188 45.458C45.5028 45.458 44.0888 45.6904 42.8652 45.9536V34.9188L37.3548 35.518V65.1448C39.6312 65.8644 42.5852 66.542 45.5 66.542C52.1276 66.542 56.042 64.3048 56.042 56C56.042 47.6952 52.1304 45.458 46.8188 45.458Z" fill="white"/>
<path d="M68.1268 53.564C65.772 53.5248 64.2936 53.4828 64.2936 52.206C64.2936 50.5288 65.2904 50.1704 68.3256 50.1704C70.1624 50.1704 72.758 50.5288 74.3932 50.9292L73.9536 46.3764C71.8368 45.738 69.482 45.458 67.9252 45.458C61.2976 45.458 58.7412 47.8548 58.7412 52.3656C58.7412 56.8764 61.4152 57.8368 65.9288 57.9152C68.8436 57.9544 70.3612 57.876 70.3612 59.7912C70.3612 61.4684 69.0424 61.8268 66.2088 61.8268C63.0532 61.8268 60.8188 61.348 59.1808 60.8272L59.6204 65.38C61.7372 66.1388 63.7336 66.5392 66.6484 66.5392C73.7156 66.5392 75.9108 64.1424 75.9108 59.8304C75.9108 54.4012 72.3576 53.6424 68.124 53.5612" fill="white"/>
<path d="M28.1316 61.67C27.412 61.7904 26.4544 61.95 25.4576 61.95C23.0608 61.95 22.064 61.1912 22.064 59.5532C22.064 57.9152 23.0216 57.5568 25.018 57.4364L28.1316 57.2376V61.67ZM24.6988 45.458C22.9432 45.458 20.5856 45.738 18.4688 46.3764L18.0292 50.9292C19.7848 50.5288 22.3804 50.1704 24.0968 50.1704C26.9724 50.1704 28.1288 50.4112 28.1288 52.7268V53.3652L24.2956 53.564C20.062 53.802 16.5088 54.5216 16.5088 59.8332C16.5088 64.1452 18.704 66.542 25.3316 66.542C28.406 66.542 31.36 65.8644 33.6364 65.1448V52.3684C33.6364 47.8576 31.122 45.4608 24.6932 45.4608" fill="white"/>
<path d="M90.062 61.67C89.3424 61.7904 88.3848 61.95 87.388 61.95C84.9912 61.95 83.9944 61.1912 83.9944 59.5532C83.9944 57.9152 84.952 57.5568 86.9484 57.4364L90.062 57.2376V61.67ZM86.6292 45.458C84.8736 45.458 82.516 45.738 80.3992 46.3764L79.9596 50.9292C81.7152 50.5288 84.3108 50.1704 86.0272 50.1704C88.9028 50.1704 90.0592 50.4112 90.0592 52.7268V53.3652L86.226 53.564C81.9924 53.802 78.4392 54.4012 78.4392 59.8332C78.4392 64.1452 80.6344 66.542 87.262 66.542C90.3364 66.542 93.2904 65.8644 95.5668 65.1448V52.3684C95.5668 47.8576 93.0524 45.4608 86.6236 45.4608" fill="white"/>
</g>
<defs>
<clipPath id="clip0_5_3">
<rect width="112" height="112" fill="white"/>
</clipPath>
</defs>
</svg>
