<svg width="24" height="24" viewBox="0 0 24 24" fill="none" xmlns="http://www.w3.org/2000/svg">
<g clip-path="url(#clip0_35_72)">
<path d="M23.9999 12.2424C23.4488 13.065 22.8991 13.8888 22.3467 14.7101C22.3083 14.7677 22.3109 14.8265 22.3134 14.8892C22.3647 15.7859 22.4121 16.684 22.4685 17.5807C22.4915 17.9402 22.4172 18.0963 22.0968 18.2587C21.3023 18.6617 20.5078 19.0647 19.712 19.4625C19.6018 19.5175 19.5287 19.5904 19.4723 19.703C19.0776 20.491 18.6688 21.2726 18.2792 22.0645C18.1319 22.3664 17.9179 22.4854 17.5872 22.4636C16.712 22.4061 15.8367 22.3677 14.9614 22.3114C14.8089 22.3012 14.6923 22.3408 14.5706 22.4227C13.8491 22.905 13.1186 23.3744 12.401 23.8618C12.1229 24.0499 11.882 24.0486 11.6052 23.8606C10.8875 23.3732 10.1571 22.9037 9.43558 22.4214C9.31256 22.3395 9.19466 22.3024 9.04344 22.3127C8.18484 22.3677 7.32367 22.4022 6.46506 22.4649C6.09342 22.4918 5.8666 22.3574 5.70513 22.021C5.33862 21.2624 4.94135 20.5179 4.56843 19.7618C4.49026 19.6032 4.38262 19.5047 4.23012 19.4292C3.46762 19.0506 2.71154 18.6591 1.94648 18.2856C1.64917 18.141 1.51461 17.9376 1.53768 17.6012C1.59663 16.7198 1.63507 15.8384 1.68633 14.957C1.69402 14.8175 1.65942 14.7024 1.58125 14.586C1.0994 13.8645 0.631655 13.1341 0.144684 12.4164C-0.0475418 12.1324 -0.0501048 11.8842 0.143402 11.6002C0.6355 10.8775 1.10966 10.1419 1.59791 9.414C1.66711 9.31038 1.69658 9.2106 1.69018 9.08651C1.63892 8.20511 1.60047 7.32242 1.54024 6.4423C1.51589 6.08795 1.65686 5.87559 1.97211 5.72336C2.74485 5.34854 3.50607 4.94942 4.27625 4.5682C4.41081 4.50168 4.49667 4.41213 4.56203 4.27909C4.9452 3.51026 5.34374 2.75039 5.71922 1.979C5.873 1.66302 6.08958 1.5287 6.44199 1.55301C7.31598 1.61313 8.19253 1.65407 9.06779 1.7014C9.16134 1.70652 9.25233 1.71931 9.33947 1.66047C10.1686 1.10399 10.999 0.552636 11.8294 0C11.9396 0 12.0486 0 12.1588 0C12.9546 0.523213 13.7517 1.04387 14.5437 1.57092C14.6859 1.66558 14.823 1.71292 14.9999 1.7014C15.8431 1.64767 16.6863 1.6093 17.5296 1.56068C17.9794 1.5351 18.1088 1.6029 18.31 1.99947C18.6983 2.76446 19.0892 3.52817 19.471 4.29572C19.5338 4.42237 19.6159 4.50296 19.7427 4.56564C20.5398 4.96221 21.3305 5.36901 22.1263 5.76686C22.3775 5.89222 22.5044 6.08027 22.4877 6.36427C22.4467 7.02692 22.4275 7.69085 22.3621 8.35094C22.3032 8.93556 22.3224 9.4818 22.7658 9.93081C22.7927 9.95768 22.8081 9.99606 22.8299 10.0293C23.2246 10.6075 23.5795 11.2126 23.9999 11.7742V12.2437V12.2424ZM15.9764 21.352C16.3826 21.3775 16.7901 21.3916 17.1938 21.4325C17.3924 21.453 17.5001 21.4018 17.5911 21.2138C17.9345 20.5038 18.301 19.8066 18.6496 19.1005C18.7547 18.8868 18.9059 18.7397 19.1199 18.6348C19.8491 18.2766 20.5719 17.9057 21.2997 17.5436C21.4087 17.4886 21.4625 17.4323 21.4535 17.2955C21.3997 16.4537 21.3587 15.6107 21.3087 14.7689C21.2972 14.5732 21.3395 14.4043 21.4497 14.2393C21.911 13.5524 22.3621 12.8577 22.8247 12.1708C22.908 12.048 22.9042 11.9635 22.8222 11.842C22.3595 11.1551 21.9072 10.4617 21.4471 9.77347C21.3523 9.63147 21.2959 9.48308 21.3049 9.31294C21.3497 8.46991 21.3895 7.62816 21.4471 6.78642C21.4599 6.60732 21.4087 6.52673 21.251 6.44998C20.5219 6.09307 19.8004 5.71825 19.0725 5.3575C18.888 5.26667 18.7598 5.13747 18.6688 4.95325C18.31 4.23432 17.9384 3.52177 17.5859 2.799C17.5001 2.62374 17.4053 2.57001 17.2117 2.5828C16.3916 2.63909 15.5714 2.67491 14.7513 2.7248C14.5539 2.73631 14.3873 2.68131 14.2246 2.57257C13.5428 2.11588 12.8534 1.66942 12.1716 1.21273C12.0511 1.13214 11.9666 1.1283 11.8422 1.21273C11.1618 1.67198 10.4723 2.11716 9.78928 2.57257C9.61884 2.68642 9.44327 2.73631 9.23823 2.7248C8.41807 2.67491 7.59663 2.63909 6.77775 2.5828C6.60218 2.57129 6.51632 2.61862 6.43815 2.77725C6.09214 3.48468 5.72691 4.18315 5.37963 4.89057C5.26685 5.11828 5.11179 5.27818 4.88112 5.39076C4.17886 5.73232 3.48685 6.09562 2.7833 6.4359C2.60645 6.52161 2.55391 6.62523 2.56544 6.812C2.61927 7.61537 2.65771 8.41874 2.70897 9.22211C2.72307 9.44342 2.66412 9.63019 2.53981 9.81312C2.08488 10.486 1.64532 11.1691 1.19039 11.8433C1.10709 11.9661 1.10581 12.0493 1.19039 12.1746C1.6402 12.8411 2.07463 13.5191 2.52572 14.1856C2.65899 14.3839 2.72307 14.5834 2.70769 14.8214C2.65643 15.6248 2.6167 16.4281 2.56416 17.2315C2.55263 17.4016 2.60004 17.4937 2.76151 17.5718C3.49197 17.9261 4.21474 18.2997 4.94263 18.6591C5.12717 18.75 5.25532 18.8779 5.34631 19.0621C5.71154 19.7951 6.08958 20.523 6.45224 21.2573C6.52273 21.3993 6.59705 21.4441 6.75596 21.4338C7.57612 21.3801 8.39629 21.343 9.21645 21.2918C9.43046 21.2778 9.61115 21.3289 9.78928 21.4479C10.471 21.9046 11.1618 22.3485 11.8422 22.8077C11.9691 22.8934 12.0524 22.8845 12.1716 22.8052C12.8598 22.3447 13.5556 21.8931 14.2451 21.4338C14.395 21.334 14.5488 21.2829 14.7282 21.2931C15.1421 21.3161 15.5573 21.334 15.9713 21.3532L15.9764 21.352Z" fill="#FF780F"/>
<path d="M12.0102 4.52985C16.138 4.53113 19.5122 7.90323 19.4993 12.0147C19.4865 16.1454 16.1572 19.4958 11.9987 19.4843C7.82868 19.4715 4.52625 16.1557 4.52112 12.016C4.516 7.84054 7.87482 4.55287 12.0102 4.53113V4.52985ZM5.52967 11.9764C5.51045 15.5352 8.39895 18.4494 11.9782 18.4813C15.5369 18.5133 18.4959 15.603 18.4895 12.0173C18.4831 8.42132 15.6369 5.56732 12.0192 5.53789C8.47328 5.50847 5.54889 8.42644 5.52967 11.9764Z" fill="#FF780F"/>
<path d="M8.48999 11.7729C8.48999 11.5414 8.59123 11.3994 8.76295 11.3111C8.92698 11.2254 9.09742 11.2305 9.2512 11.3393C9.33322 11.3981 9.40883 11.4672 9.47931 11.5401C9.96116 12.0313 10.4468 12.52 10.9184 13.0215C11.0504 13.1622 11.1235 13.1417 11.2503 13.0215C12.3563 11.9699 13.4686 10.9261 14.5784 9.87964C14.6809 9.7837 14.7822 9.68647 14.9295 9.65961C15.1512 9.61995 15.3307 9.68136 15.4575 9.87068C15.5857 10.0626 15.5716 10.2545 15.4383 10.4374C15.3883 10.5065 15.3242 10.5666 15.2627 10.6254C14.0274 11.7908 12.792 12.955 11.5566 14.1191C11.176 14.4773 10.9389 14.4734 10.5788 14.105C9.95988 13.4731 9.34347 12.8398 8.72579 12.2066C8.59892 12.0761 8.47718 11.9431 8.49127 11.7729H8.48999Z" fill="#FF780F"/>
</g>
<defs>
<clipPath id="clip0_35_72">
<rect width="24" height="24" fill="white"/>
</clipPath>
</defs>
</svg>
