<svg width="16" height="16" viewBox="0 0 16 16" fill="none" xmlns="http://www.w3.org/2000/svg">
<path d="M10.8436 6.46344C11.2341 6.07292 11.2341 5.43976 10.8436 5.04923C10.4531 4.65871 9.8199 4.65871 9.42938 5.04923L10.8436 6.46344ZM4.65641 9.8222C4.26588 10.2127 4.26588 10.8459 4.65641 11.2364C5.04693 11.6269 5.6801 11.6269 6.07062 11.2364L4.65641 9.8222ZM9.42938 11.2364C9.8199 11.6269 10.4531 11.6269 10.8436 11.2364C11.2341 10.8459 11.2341 10.2127 10.8436 9.8222L9.42938 11.2364ZM6.07062 5.04923C5.6801 4.65871 5.04693 4.65871 4.65641 5.04923C4.26588 5.43975 4.26588 6.07292 4.65641 6.46344L6.07062 5.04923ZM13.5 8.14282C13.5 11.3185 10.9256 13.8928 7.75 13.8928V15.8928C12.0302 15.8928 15.5 12.423 15.5 8.14282H13.5ZM7.75 13.8928C4.57436 13.8928 2 11.3185 2 8.14282H0C0 12.423 3.46979 15.8928 7.75 15.8928V13.8928ZM2 8.14282C2 4.96718 4.57436 2.39282 7.75 2.39282V0.392822C3.46979 0.392822 0 3.86262 0 8.14282H2ZM7.75 2.39282C10.9256 2.39282 13.5 4.96718 13.5 8.14282H15.5C15.5 3.86262 12.0302 0.392822 7.75 0.392822V2.39282ZM9.42938 5.04923L7.04289 7.43572L8.45711 8.84993L10.8436 6.46344L9.42938 5.04923ZM7.04289 7.43572L4.65641 9.8222L6.07062 11.2364L8.45711 8.84993L7.04289 7.43572ZM10.8436 9.8222L8.45711 7.43572L7.04289 8.84993L9.42938 11.2364L10.8436 9.8222ZM8.45711 7.43572L6.07062 5.04923L4.65641 6.46344L7.04289 8.84993L8.45711 7.43572Z" fill="#AA052D"/>
</svg>
