<svg width="252" height="252" viewBox="0 0 252 252" fill="none" xmlns="http://www.w3.org/2000/svg">
<circle cx="126" cy="126" r="126" fill="#FF780F"/>
<path d="M107.542 192C104.842 191.27 103.03 189.301 101.372 187.327C99.4503 185.039 97.2373 184.139 94.2744 184.48C92.4806 184.687 90.6399 184.544 88.8226 184.513C83.3734 184.421 80.21 179.643 82.3632 174.714C85.313 167.955 88.3123 161.219 91.2908 154.473C91.8245 153.263 92.3087 152.031 92.918 150.859C93.3371 150.054 93.1575 149.608 92.4702 149.052C90.6268 147.563 89.0048 145.843 87.4115 144.095C85.7348 142.255 85.1828 140.184 86.4534 138C88.0051 135.334 88.0806 132.976 86.2581 130.305C84.6517 127.952 83.8941 125.12 83.1755 122.355C83.0141 121.737 82.7251 121.401 82.1523 121.188C80.9807 120.753 79.8195 120.289 78.6557 119.835C76.4088 118.958 75.2373 117.31 75.1045 114.955C74.9665 112.484 74.9639 110.011 75.1045 107.54C75.2373 105.194 76.3021 103.326 78.6505 102.711C81.8451 101.875 83.5842 100.112 84.256 96.8566C84.8027 94.2089 86.219 91.779 87.6588 89.444C88.065 88.7853 88.1092 88.2368 87.7812 87.5499C87.2136 86.358 86.7137 85.1328 86.2034 83.9153C85.4145 82.034 85.792 80.3218 87.073 78.7891C88.8642 76.6437 90.869 74.6983 93.0299 72.9144C94.6389 71.5867 96.4458 71.3509 98.375 72.0865C99.9033 72.6683 101.424 73.8217 102.921 73.7782C104.361 73.7372 105.746 72.453 107.185 71.7789C109.529 70.6845 111.945 69.7515 114.481 69.1825C115.282 69.0031 115.722 68.6058 115.985 67.8368C116.384 66.6706 116.889 65.5377 117.373 64.4022C118.157 62.5619 119.542 61.4598 121.575 61.2393C124.512 60.9189 127.451 60.9241 130.388 61.2316C132.37 61.4393 133.752 62.4901 134.549 64.2664C135.228 65.7786 135.496 67.6984 136.616 68.7288C137.696 69.7182 139.657 69.7489 141.198 70.2872C143.646 71.1407 145.997 72.2223 148.223 73.5475C148.793 73.8884 149.28 73.9525 149.91 73.6526C151.074 73.0964 152.279 72.6196 153.482 72.1455C155.502 71.3458 157.369 71.5918 159.053 72.9964C161.175 74.7624 163.144 76.6796 164.914 78.7865C166.198 80.3167 166.578 82.0289 165.791 83.9128C165.268 85.1713 164.753 86.4375 164.175 87.6703C163.891 88.2727 163.909 88.7545 164.26 89.3312C166.315 92.7095 167.809 96.3286 168.814 100.135C168.978 100.755 169.275 101.07 169.861 101.283C171.074 101.724 172.264 102.231 173.467 102.706C175.625 103.557 176.721 105.182 176.872 107.412C177.044 109.964 177.041 112.528 176.872 115.08C176.724 117.321 175.581 118.915 173.448 119.784C172.014 120.368 170.22 120.614 169.244 121.624C168.309 122.593 168.257 124.367 167.754 125.764C166.89 128.175 165.867 130.528 164.5 132.705C163.93 133.612 163.878 134.36 164.385 135.288C164.896 136.221 165.25 137.234 165.677 138.21C166.567 140.25 166.268 142.109 164.812 143.798C163.157 145.72 161.384 147.532 159.41 149.134C158.736 149.68 158.718 150.126 159.04 150.854C162.532 158.682 165.854 166.584 169.507 174.337C171.847 179.305 168.585 184.713 162.771 184.546C160.09 184.47 157.4 184.562 154.718 184.516C153.865 184.5 153.25 184.759 152.672 185.367C151.576 186.515 150.378 187.571 149.285 188.722C147.91 190.17 146.411 191.413 144.445 191.997H141.586C138.691 191.072 137.147 188.955 135.973 186.294C133.083 179.756 130.021 173.292 127.025 166.797C126.73 166.156 126.418 165.525 126.087 164.839C125.546 165.256 125.449 165.777 125.246 166.217C122.153 172.902 119.006 179.564 116.027 186.294C114.85 188.955 113.309 191.075 110.406 191.997H107.547L107.542 192ZM161.6 140.125C161.535 139.953 161.423 139.633 161.287 139.323C160.644 137.836 160.012 136.347 159.34 134.873C158.931 133.976 158.999 133.151 159.532 132.33C162.084 128.427 163.836 124.195 164.875 119.674C165.094 118.72 165.638 118.108 166.578 117.756C168.192 117.151 169.772 116.462 171.389 115.865C172.045 115.624 172.355 115.26 172.407 114.576C172.576 112.361 172.561 110.149 172.417 107.934C172.368 107.183 171.996 106.809 171.311 106.558C169.814 106.01 168.356 105.358 166.848 104.838C165.711 104.446 165.057 103.733 164.805 102.59C163.831 98.1817 162.087 94.0833 159.624 90.2847C159.007 89.3338 158.931 88.4341 159.426 87.4012C160.126 85.9402 160.696 84.4203 161.381 82.9542C161.691 82.2878 161.675 81.7854 161.16 81.2215C159.678 79.6067 158.127 78.0663 156.489 76.6053C155.908 76.0875 155.403 76.085 154.739 76.3849C153.247 77.0564 151.717 77.6434 150.227 78.32C149.139 78.8147 148.186 78.7071 147.176 78.074C143.354 75.6749 139.225 73.973 134.788 73.0297C133.625 72.7811 132.888 72.1557 132.479 71.0433C131.924 69.5259 131.263 68.0444 130.68 66.5348C130.44 65.9119 130.091 65.6197 129.365 65.5556C127.113 65.3608 124.874 65.3608 122.624 65.5556C121.906 65.6172 121.544 65.8863 121.302 66.5219C120.708 68.0726 120.05 69.6003 119.456 71.151C119.071 72.1557 118.391 72.7734 117.329 73.0015C112.807 73.9653 108.599 75.6826 104.709 78.1432C103.746 78.7532 102.804 78.7917 101.767 78.3226C100.237 77.6331 98.664 77.0333 97.1331 76.3413C96.5369 76.0722 96.1099 76.1183 95.6153 76.5463C93.9255 78.0176 92.3322 79.576 90.8299 81.2318C90.3665 81.7444 90.278 82.2083 90.5748 82.8465C91.2908 84.3947 91.9182 85.9812 92.6264 87.5319C93.056 88.4726 92.9935 89.3261 92.4285 90.1899C89.9083 94.0577 88.1457 98.2407 87.1407 102.729C86.9038 103.785 86.2789 104.426 85.2531 104.8C83.7561 105.346 82.3111 106.03 80.7984 106.532C79.9054 106.83 79.5826 107.345 79.5409 108.204C79.4446 110.249 79.4368 112.292 79.5461 114.337C79.5904 115.155 79.9054 115.629 80.7412 115.911C82.2512 116.418 83.7066 117.077 85.1984 117.638C86.2503 118.033 86.9168 118.705 87.1615 119.815C88.1431 124.267 89.9083 128.404 92.3973 132.241C92.9857 133.148 93.0508 134.027 92.5873 135.014C91.9 136.48 91.3116 137.992 90.6268 139.461C90.3014 140.161 90.3222 140.678 90.8794 141.294C92.3244 142.885 93.8422 144.392 95.4642 145.81C96.0891 146.356 96.6046 146.379 97.3232 146.053C98.8124 145.377 100.349 144.803 101.843 144.134C102.838 143.688 103.741 143.723 104.665 144.308C108.555 146.768 112.775 148.475 117.279 149.475C118.422 149.729 119.086 150.357 119.485 151.395C120.068 152.905 120.724 154.386 121.294 155.901C121.549 156.583 121.914 156.967 122.695 156.962C124.903 156.944 127.11 156.947 129.318 156.962C130.021 156.967 130.425 156.654 130.669 156.014C131.266 154.463 131.922 152.935 132.521 151.387C132.922 150.349 133.598 149.731 134.739 149.478C139.246 148.481 143.461 146.768 147.356 144.313C148.233 143.759 149.103 143.682 150.058 144.1C151.636 144.79 153.245 145.415 154.817 146.117C155.455 146.402 155.919 146.346 156.45 145.882C158.103 144.436 159.704 142.944 161.121 141.268C161.365 140.978 161.699 140.732 161.605 140.13L161.6 140.125ZM122.388 161.337C119.563 161.263 117.878 159.73 116.985 157.182C116.662 156.26 116.207 155.381 115.905 154.45C115.691 153.794 115.288 153.517 114.642 153.356C111.786 152.646 108.878 151.867 106.454 150.262C103.803 148.504 101.473 148.611 98.8957 150.126C98.2787 150.488 97.784 150.8 97.4846 151.482C93.8553 159.756 90.1921 168.014 86.5523 176.283C85.5499 178.562 86.5445 180.038 89.0881 180.056C91.7724 180.076 94.4567 180.105 97.1383 180.046C99.2628 179.999 100.999 180.668 102.45 182.224C103.767 183.634 105.196 184.944 106.576 186.297C108.646 188.327 110.242 188.053 111.447 185.446C114.97 177.826 118.49 170.201 122 162.575C122.171 162.201 122.46 161.85 122.385 161.34L122.388 161.337ZM129.566 161.337C129.599 161.576 129.592 161.668 129.625 161.742C133.351 169.831 137.064 177.928 140.821 186.005C141.677 187.845 143.453 188.15 144.942 186.751C146.601 185.192 148.228 183.598 149.813 181.968C151.128 180.617 152.701 180.022 154.573 180.035C157.299 180.056 160.025 180.046 162.75 180.038C165.534 180.03 166.458 178.603 165.336 176.055C162.157 168.845 158.845 161.686 155.856 154.399C154.703 151.59 153.149 149.652 150.131 148.868C149.373 148.67 148.834 148.558 148.108 148.983C145.507 150.511 142.802 151.972 139.844 152.566C137.069 153.125 135.7 154.596 134.986 157.154C134.262 159.746 132.458 161.253 129.566 161.337Z" fill="white"/>
<path d="M125.962 146.189C106.509 146.214 90.5125 130.51 90.4604 111.333C90.4083 92.0681 106.339 76.3126 125.882 76.2998C145.549 76.2869 161.47 91.9041 161.522 111.261C161.574 130.438 145.565 146.163 125.96 146.186L125.962 146.189ZM125.856 141.783C142.938 141.88 156.856 128.254 156.973 111.322C157.088 94.6236 143.299 80.7929 126.447 80.7032C109.016 80.6109 95.0895 94.0597 95.0088 111.066C94.9281 127.975 108.698 141.685 125.856 141.783Z" fill="white"/>
<path d="M112.752 113.45C114.061 113.437 115.28 113.763 116.308 114.506C117.006 115.011 117.368 114.826 117.899 114.301C123.301 108.949 128.743 103.63 134.143 98.2761C136.075 96.3588 138.329 95.5591 140.987 96.2743C145.833 97.5789 147.52 103.349 144.13 106.993C142.669 108.564 141.089 110.028 139.558 111.535C133.833 117.174 128.108 122.815 122.377 128.447C119.045 131.722 115.22 131.717 111.895 128.449C110.515 127.093 109.086 125.781 107.787 124.356C105.876 122.254 105.454 119.817 106.647 117.241C107.823 114.703 109.982 113.557 112.752 113.45ZM112.59 117.81C111.809 117.933 111.067 118.279 110.737 119.112C110.38 120.011 110.515 120.875 111.237 121.588C112.489 122.826 113.744 124.059 115.001 125.291C116.629 126.886 117.636 126.888 119.271 125.281C126.251 118.417 133.229 111.548 140.204 104.676C140.508 104.376 140.823 104.071 141.06 103.723C141.664 102.833 141.508 101.613 140.711 100.939C139.844 100.206 138.902 100.193 137.973 100.808C137.618 101.042 137.335 101.383 137.03 101.682C131.182 107.434 125.337 113.188 119.492 118.943C117.527 120.875 116.754 120.883 114.772 118.943C114.176 118.358 113.567 117.843 112.59 117.81Z" fill="white"/>
</svg>
