<svg width="24" height="24" viewBox="0 0 24 24" fill="none" xmlns="http://www.w3.org/2000/svg">
<path d="M9.18747 3.94C9.27747 3.398 9.74747 3 10.2975 3H12.8905C13.4405 3 13.9105 3.398 14.0005 3.94L14.2135 5.221C14.2765 5.595 14.5265 5.907 14.8585 6.091C14.9325 6.131 15.0055 6.174 15.0785 6.218C15.4035 6.414 15.7985 6.475 16.1535 6.342L17.3705 5.886C17.6199 5.79221 17.8945 5.78998 18.1453 5.87971C18.3962 5.96945 18.6071 6.14531 18.7405 6.376L20.0365 8.623C20.1695 8.8537 20.2164 9.12413 20.1688 9.38617C20.1212 9.6482 19.9822 9.88485 19.7765 10.054L18.7735 10.881C18.4805 11.122 18.3355 11.494 18.3435 11.873C18.3449 11.958 18.3449 12.043 18.3435 12.128C18.3355 12.506 18.4805 12.878 18.7735 13.119L19.7775 13.946C20.2015 14.296 20.3115 14.901 20.0375 15.376L18.7395 17.623C18.6063 17.8536 18.3957 18.0296 18.145 18.1195C17.8943 18.2094 17.6199 18.2074 17.3705 18.114L16.1535 17.658C15.7985 17.525 15.4035 17.586 15.0775 17.782C15.005 17.8261 14.9316 17.8688 14.8575 17.91C14.5265 18.093 14.2765 18.405 14.2135 18.779L14.0005 20.06C13.9105 20.603 13.4405 21 12.8905 21H10.2965C9.74647 21 9.27747 20.602 9.18647 20.06L8.97347 18.779C8.91147 18.405 8.66147 18.093 8.32947 17.909C8.25532 17.8681 8.18197 17.8258 8.10947 17.782C7.78447 17.586 7.38947 17.525 7.03347 17.658L5.81647 18.114C5.5672 18.2075 5.29283 18.2096 5.04217 18.1199C4.7915 18.0302 4.58078 17.8545 4.44747 17.624L3.15047 15.377C3.01741 15.1463 2.97051 14.8759 3.01812 14.6138C3.06573 14.3518 3.20476 14.1152 3.41047 13.946L4.41447 13.119C4.70647 12.879 4.85147 12.506 4.84447 12.128C4.8429 12.043 4.8429 11.958 4.84447 11.873C4.85147 11.493 4.70647 11.122 4.41447 10.881L3.41047 10.054C3.20501 9.88489 3.06614 9.64843 3.01854 9.38662C2.97094 9.12481 3.01768 8.8546 3.15047 8.624L4.44747 6.377C4.58065 6.14614 4.79148 5.97006 5.04238 5.88014C5.29328 5.79021 5.56796 5.79229 5.81747 5.886L7.03347 6.342C7.38947 6.475 7.78447 6.414 8.10947 6.218C8.18147 6.174 8.25547 6.132 8.32947 6.09C8.66147 5.907 8.91147 5.595 8.97347 5.221L9.18747 3.94Z" stroke="#FF780F" stroke-width="1.5" stroke-linecap="round" stroke-linejoin="round"/>
<path d="M15 12C15 12.7956 14.6839 13.5587 14.1213 14.1213C13.5587 14.6839 12.7956 15 12 15C11.2044 15 10.4413 14.6839 9.87868 14.1213C9.31607 13.5587 9 12.7956 9 12C9 11.2044 9.31607 10.4413 9.87868 9.87868C10.4413 9.31607 11.2044 9 12 9C12.7956 9 13.5587 9.31607 14.1213 9.87868C14.6839 10.4413 15 11.2044 15 12Z" stroke="#FF780F" stroke-width="1.5" stroke-linecap="round" stroke-linejoin="round"/>
</svg>
