<svg width="19" height="18" viewBox="0 0 19 18" fill="none" xmlns="http://www.w3.org/2000/svg">
<g clip-path="url(#clip0_35_71)">
<path d="M9.44694 0C11.8264 0 14.2058 0 16.5866 0C17.9348 0 18.8571 0.919718 18.8571 2.26215C18.8571 6.75405 18.8571 11.2473 18.8571 15.7392C18.8571 17.0803 17.9334 17.9986 16.5838 17.9986C11.8087 17.9986 7.03487 17.9986 2.2597 17.9986C0.927824 17.9986 0 17.0749 0 15.7473C0 11.2473 0 6.7473 0 2.24865C0 0.922419 0.929184 0 2.26242 0C4.65681 0 7.05255 0 9.44694 0ZM9.41973 16.5603C11.7842 16.5603 14.15 16.5603 16.5145 16.5603C17.1416 16.5603 17.4083 16.2929 17.4083 15.669C17.4083 11.2216 17.4083 6.77296 17.4083 2.32563C17.4083 1.70708 17.1362 1.43833 16.509 1.43833C11.7869 1.43833 7.0648 1.43833 2.34269 1.43833C1.71552 1.43833 1.44887 1.70303 1.44887 2.32968C1.44887 6.77701 1.44887 11.2257 1.44887 15.673C1.44887 16.2929 1.7196 16.5603 2.34677 16.5603C4.70442 16.5603 7.06072 16.5603 9.41837 16.5603H9.41973Z" fill="#FF780F"/>
<path d="M6.10297 6.47987C6.25398 6.47987 6.33696 6.47987 6.41859 6.47987C8.97895 6.47987 11.538 6.47987 14.0983 6.47987C14.6683 6.47987 15.0384 7.00523 14.8057 7.49278C14.667 7.78179 14.4275 7.91955 14.097 7.91955C11.7257 7.9155 9.35443 7.9182 6.98318 7.9182C6.12201 7.9182 5.26085 7.9155 4.40105 7.91955C4.0623 7.9209 3.81334 7.78179 3.68273 7.47522C3.55213 7.1673 3.63104 6.89044 3.86912 6.65544C4.57519 5.95721 5.27718 5.25493 5.98461 4.5567C6.30159 4.24338 6.73966 4.23257 7.03623 4.51889C7.33825 4.8106 7.33145 5.25493 7.01175 5.57906C6.72741 5.86673 6.43764 6.14899 6.10297 6.47852V6.47987Z" fill="#FF780F"/>
<path d="M13.0467 11.8794C12.7229 11.8794 12.3977 11.8794 12.074 11.8794C9.7476 11.8794 7.42124 11.8794 5.09487 11.8794C4.74796 11.8794 4.47723 11.6808 4.37928 11.3662C4.28813 11.0745 4.39969 10.7557 4.65545 10.5707C4.81054 10.4586 4.98468 10.4397 5.1697 10.4397C8.15996 10.4424 11.1516 10.441 14.1418 10.441C14.3758 10.441 14.6098 10.4437 14.8438 10.441C15.1649 10.437 15.3989 10.5842 15.5281 10.8665C15.6587 11.1514 15.6138 11.4323 15.3907 11.6565C14.6588 12.3926 13.9228 13.1259 13.1786 13.8498C12.8875 14.1334 12.4372 14.1064 12.1624 13.8201C11.893 13.5419 11.8862 13.1124 12.1638 12.8261C12.4603 12.5195 12.7705 12.2265 13.0739 11.928C13.0644 11.9118 13.0548 11.8956 13.044 11.8794H13.0467Z" fill="#FF780F"/>
</g>
<defs>
<clipPath id="clip0_35_71">
<rect width="18.8571" height="18" fill="white"/>
</clipPath>
</defs>
</svg>
