<svg width="24" height="24" viewBox="0 0 24 24" fill="none" xmlns="http://www.w3.org/2000/svg">
<path d="M16.249 6C16.249 6.99456 15.8539 7.94839 15.1507 8.65165C14.4474 9.35491 13.4936 9.75 12.499 9.75C11.5044 9.75 10.5506 9.35491 9.84735 8.65165C9.14409 7.94839 8.749 6.99456 8.749 6C8.749 5.00544 9.14409 4.05161 9.84735 3.34835C10.5506 2.64509 11.5044 2.25 12.499 2.25C13.4936 2.25 14.4474 2.64509 15.1507 3.34835C15.8539 4.05161 16.249 5.00544 16.249 6ZM5 20.118C5.03213 18.1504 5.83634 16.2742 7.23918 14.894C8.64202 13.5139 10.5311 12.7405 12.499 12.7405C14.4669 12.7405 16.356 13.5139 17.7588 14.894C19.1617 16.2742 19.9659 18.1504 19.998 20.118C17.6454 21.1968 15.0871 21.7535 12.499 21.75C9.823 21.75 7.283 21.166 5 20.118Z" stroke="#FF780F" stroke-width="1.5" stroke-linecap="round" stroke-linejoin="round"/>
</svg>
