<?xml version="1.0" encoding="UTF-8"?>
<svg id="Layer_2" data-name="Layer 2" xmlns="http://www.w3.org/2000/svg" viewBox="0 0 188.23 188.23">
  <defs>
    <style>
      .cls-1 {
        fill: #9f1c2c;
      }
    </style>
  </defs>
  <g id="Layer_1-2" data-name="Layer 1">
    <path class="cls-1" d="M171.52,65.93c3.2,8.79,4.95,18.28,4.95,28.18s-1.75,19.39-4.95,28.18l11.06,4.03c3.66-10.05,5.66-20.89,5.66-32.21s-2-22.16-5.66-32.21l-11.06,4.03ZM8.8,133.91c14.99,32.09,47.56,54.32,85.32,54.32s70.32-22.23,85.32-54.32l-10.66-4.98c-13.12,28.08-41.61,47.53-74.65,47.53s-61.53-19.46-74.65-47.53l-10.66,4.98ZM16.71,65.93l-11.06-4.03C2,71.96,0,82.8,0,94.12s2,22.16,5.66,32.21l11.06-4.03c-3.2-8.79-4.95-18.28-4.95-28.18s1.75-19.39,4.95-28.18M179.43,54.32C164.44,22.23,131.88,0,94.12,0S23.79,22.23,8.8,54.32l10.66,4.97C32.59,31.22,61.08,11.76,94.12,11.76s61.53,19.46,74.65,47.53l10.66-4.97Z"/>
    <g id="_2QThXv" data-name="2QThXv">
      <g>
        <path d="M61.2,43.14c12.48.62,26.14-1.04,38.49-.07,2.71.21,4.98,1.34,7.01,3.07,7.27,6.2,13.68,14.94,20.9,21.36,1.61,1.95,2.64,4.47,2.85,7,.44,5.41-.41,11.3.11,16.75,2.11,1.14,4.25,2.24,6.47,3.17,2.93,1.22,6.79,2,9.42,3.28,1.37.67,2.39,1.99,2.6,3.53,1.47,10.71-3.2,23.04-11.03,30.32-2.36,2.19-9.64,7.53-12.45,8.79-.53.24-1.32.48-1.89.52-20.31,1.41-41.61-.39-62.09.32-5-.54-9.07-4.09-10.34-8.93-.65-26.13-.1-52.38-.28-78.55.53-5.44,4.83-9.88,10.24-10.56ZM100.01,47.89l-2.07-.23c-11.37.61-23.55-.79-34.83.01-4.87.35-7.26,2.92-7.57,7.76v73.59c-.04,3.94,3.07,7.56,7.13,7.56h52.45c.12-.51-.1-.36-.28-.5-3.27-2.57-5.94-4.09-8.81-7.38-5.96-6.84-9.67-18.38-8.37-27.43.58-4.04,5.27-4.29,8.38-5.42,2.85-1.04,5.88-2.31,8.57-3.69,2.28-1.17,6.84-4.59,9.15-4.42.68.05,1.28.37,1.87.66v-14.56s-.31-.33-.33-.33h-14.67c-4.51,0-10.62-5.62-10.62-10.18v-15.44ZM122.13,68.69l-17.52-17.74v10.84c0,2.72,2.94,6.9,5.8,6.9h11.72ZM123.17,92.6c-4.61,3-9.56,5.5-14.72,7.41-.89.33-5.53,1.62-5.81,1.85-.24.2-.2.38-.23.65-.69,5.63.94,12.9,3.62,17.86,3.99,7.39,10.38,11.39,17.31,15.69,9.74-5.68,17.92-12.15,20.37-23.79.49-2.35,1.06-7.46.77-9.76-.03-.24.02-.49-.22-.65-7.24-1.95-14.16-5.06-20.44-9.14l-.65-.13Z"/>
        <path d="M66.88,89.77l37.84-.06c2.67.32,3.19,3.63.7,4.65-12.9.28-25.97.28-38.86,0-2.32-.97-2.11-3.94.32-4.6Z"/>
        <path d="M66.88,75.75l33.02-.05c3.29.24,3.31,4.57,0,4.82h-32.64c-2.86-.34-3.19-4.01-.38-4.77Z"/>
        <path d="M66.88,103.78l23.82-.06c2.67.32,3.19,3.63.7,4.65-8.22.28-16.62.28-24.85,0-2.32-.97-2.11-3.94.32-4.6Z"/>
        <path d="M66.88,117.8l23.82-.06c2.67.32,3.19,3.63.7,4.65-8.22.28-16.62.28-24.85,0-2.32-.97-2.11-3.94.32-4.6Z"/>
        <path d="M66.88,61.74l19.2-.03c3.09.42,3,4.41,0,4.78h-19.02c-2.69-.6-2.91-3.96-.18-4.75Z"/>
        <path d="M129.73,106.19c2-.45,3.51,1.54,2.74,3.4l-10.29,10.3c-.87.41-1.77.36-2.58-.17-.46-.3-5.13-5.04-5.31-5.42-1.08-2.2,1.32-4.46,3.35-3.13.64.42,3.01,3.35,3.47,3.27,1.77-1.15,7.13-7.92,8.62-8.26Z"/>
      </g>
    </g>
  </g>
</svg>