<?xml version="1.0" encoding="UTF-8"?>
<svg id="Layer_2" data-name="Layer 2" xmlns="http://www.w3.org/2000/svg" viewBox="0 0 188.23 188.23">
  <defs>
    <style>
      .cls-1 {
        fill: #9f1c2c;
      }
    </style>
  </defs>
  <g id="Layer_1-2" data-name="Layer 1">
    <path class="cls-1" d="M171.52,65.93c3.2,8.79,4.95,18.28,4.95,28.18s-1.75,19.39-4.95,28.18l11.06,4.03c3.66-10.05,5.66-20.89,5.66-32.21s-2-22.16-5.66-32.21l-11.06,4.03ZM8.8,133.91c14.99,32.09,47.56,54.32,85.32,54.32s70.32-22.23,85.32-54.32l-10.66-4.98c-13.12,28.08-41.61,47.53-74.65,47.53s-61.53-19.46-74.65-47.53l-10.66,4.98ZM16.71,65.93l-11.06-4.03C2,71.96,0,82.8,0,94.12s2,22.16,5.66,32.21l11.06-4.03c-3.2-8.79-4.95-18.28-4.95-28.18s1.75-19.39,4.95-28.18M179.43,54.32C164.44,22.23,131.88,0,94.12,0S23.79,22.23,8.8,54.32l10.66,4.97C32.59,31.22,61.08,11.76,94.12,11.76s61.53,19.46,74.65,47.53l10.66-4.97Z"/>
    <g id="rB2COa">
      <g>
        <path d="M140.07,85.5v47.92c-.76,1.89-2.09,3.37-4.22,3.59h-46.31c-1.73.2-4.57-1.97-4.57-3.68v-10.14h-30.24c-3.01,0-6.58-4.07-6.56-7.08v-57.97c.49-3.74,3.32-6.54,7.09-6.92h69.83c3.7.26,6.53,2.78,7.25,6.39v23.68c-.03.18.14.62.28.62h3.95c.08,0,.93.41,1.11.51,1.36.71,1.84,1.72,2.39,3.08ZM55.26,120.14h29.7v-4.49h-26.11c-1.24,0-2.89-1.28-2.97-2.6v-43.8c.04-1.59,1.44-2.68,2.96-2.78h62.65c1.43-.09,3.31,1.33,3.31,2.79v12.65h4.49v-23.96c0-.11-.56-1.26-.68-1.47-.84-1.43-2.26-2.05-3.89-2.22H55.98c-2.88.23-4.53,1.87-4.76,4.76v56.37c.04,2.32,1.7,4.43,4.04,4.75ZM69.53,69.7h-10.59v5.92h10.59v-5.92ZM121.58,69.7h-48.82v5.92h48.82v-5.92ZM69.53,78.86h-10.59v6.1h10.59v-6.1ZM121.58,78.86h-48.82v6.1h12.29c.14,0,1.04-1.71,1.62-2.15.24-.18,1.61-.9,1.79-.9h33.11v-3.05ZM88.44,85.37c-.26.29-.42.88-.43,1.28l.09,46.23c.35.87,1.12,1,1.98,1.07,15.21-.1,30.46.16,45.65-.13.66-.19,1.05-.42,1.21-1.12.1-15.53.18-31.12-.04-46.65-.14-.48-.5-.83-.95-1.03l-46.9-.03c-.19.1-.47.21-.61.37ZM69.53,88.01h-10.59v6.1h10.59v-6.1ZM84.97,88.01h-12.2v6.1h12.2v-6.1ZM69.53,97.16h-10.59v6.1h10.59v-6.1ZM84.97,97.16h-12.2v6.1h12.2v-6.1ZM69.53,106.32h-10.59v6.1h10.59v-6.1ZM84.97,106.32h-12.2v6.1h12.2v-6.1Z"/>
        <path d="M123.2,120.76c.31-1.56,2.78-1.62,3.04.01.13.81.12,4.37-.07,5.11-.22.85-1.33,1.82-2.24,1.89l-23.62.09c-2.59-.03-4.16-2.65-2.41-4.76,4.09-4.04,8.79-7.5,12.92-11.49,1.41-1.36,2.47-2.04.72-3.77-4.21-4.17-9.33-7.91-13.64-12.02-1.39-1.83-.64-4.11,1.54-4.75h24.56c.94.14,1.88.91,2.14,1.81.23.8.24,4.18.13,5.09-.14,1.13-1.38,1.69-2.33,1.06-.18-.12-.72-.75-.72-.89v-4.04h-22.43l13.64,12.29c1.56,1.77,1.46,4.43-.09,6.2-3.36,3.83-8.86,7.28-12.48,11.03l-.89.99h22.25c.16-1.14-.21-2.8,0-3.86Z"/>
        <path d="M124.4,59.35c.9,1.07.06,2.58-1.29,2.64h-33.21c-1.77.03-2.68-1.85-1.11-2.92,11.47-.32,23.02-.03,34.51-.15.34-.02.9.18,1.1.42Z"/>
        <path d="M76.66,58.97c2.08.21,5.35-.43,7.28,0,1.35.3,1.4,2.65-.36,2.97-1.05.19-5.34.19-6.41.03-1.65-.25-1.91-2.23-.51-3Z"/>
        <path d="M63.02,61.57c-.63.57-3.6.54-4.44.34-1.61-.38-1.53-2.64-.22-2.94.5-.11,3.79-.13,4.23,0,.98.28,1.15,1.94.43,2.6Z"/>
        <path d="M67.51,58.97c.38-.11,3.85-.11,4.23,0,1.03.3,1.25,1.92.37,2.63-.68.55-3.68.52-4.5.24-1.4-.46-1.31-2.53-.1-2.88Z"/>
      </g>
    </g>
  </g>
</svg>