<?xml version="1.0" encoding="UTF-8"?>
<svg id="Layer_2" data-name="Layer 2" xmlns="http://www.w3.org/2000/svg" viewBox="0 0 188.23 188.23">
  <defs>
    <style>
      .cls-1 {
        fill: #9f1c2c;
      }
    </style>
  </defs>
  <g id="Layer_1-2" data-name="Layer 1">
    <path class="cls-1" d="M171.52,65.93c3.2,8.79,4.95,18.28,4.95,28.18s-1.75,19.39-4.95,28.18l11.06,4.03c3.66-10.05,5.66-20.89,5.66-32.21s-2-22.16-5.66-32.21l-11.06,4.03ZM8.8,133.91c14.99,32.09,47.56,54.32,85.32,54.32s70.32-22.23,85.32-54.32l-10.66-4.98c-13.12,28.08-41.61,47.53-74.65,47.53s-61.53-19.46-74.65-47.53l-10.66,4.98ZM16.71,65.93l-11.06-4.03C2,71.96,0,82.8,0,94.12s2,22.16,5.66,32.21l11.06-4.03c-3.2-8.79-4.95-18.28-4.95-28.18s1.75-19.39,4.95-28.18M179.43,54.32C164.44,22.23,131.88,0,94.12,0S23.79,22.23,8.8,54.32l10.66,4.97C32.59,31.22,61.08,11.76,94.12,11.76s61.53,19.46,74.65,47.53l10.66-4.97Z"/>
    <g id="h2DUYY">
      <g>
        <path d="M81.49,156.31c-.72-.51-1.17-1.04-1.34-1.94l-3.76-17.49-16.2,8.45c-1.46.75-3.26-.28-2.98-1.99l13.04-28.2c-.44-.65-1.04-1.21-1.43-1.89-1.04-1.78-2.52-5.96-3.71-7.23s-5.93-2.86-7.79-4.11c-4.58-3.07-2.89-7.26-2.78-11.78.12-4.84-3.15-6.15-4.8-10.04-.98-2.29-.94-4.28.13-6.54.92-1.94,4.14-5.32,4.55-7.11.71-3.06-.96-7.16-.02-10.47,1.26-4.44,6.09-5.12,9.52-7.24,3.07-1.89,3.53-7.09,6.15-9.64,3.62-3.53,8.19-1.52,12.52-1.62,3.42-.08,6.93-5.74,11.91-5.55,4.15.16,8.26,5.49,11.16,5.55,3.14.07,6.77-1.11,9.83-.07,5.47,1.86,4.88,8.93,8.99,11.41,3.02,1.82,7.55,2.73,9.04,6.27,1.58,3.75-.51,7.88.3,11.36.41,1.78,3.63,5.16,4.55,7.11,1.07,2.26,1.11,4.24.13,6.54-1.65,3.88-4.92,5.2-4.8,10.04.11,4.52,1.81,8.71-2.78,11.78-1.87,1.25-6.55,2.79-7.79,4.11s-2.67,5.44-3.71,7.23c-.39.68-.99,1.25-1.43,1.89l13.04,28.2c.28,1.71-1.52,2.74-2.98,1.99l-16.2-8.45c-1.45,6.21-2.46,12.6-4.26,18.7l-.84.73h-1.46c-.71-.49-1.11-1.06-1.42-1.86l-9.63-20.74c-.41-.12-.74.97-.89,1.3-3.14,6.75-6.24,13.51-9.38,20.25l-1.02,1.04h-1.46ZM93.57,35.88c-2.25.33-6.13,4.44-8.88,5.22-2.93.84-6.47-.38-9.42-.18-1.76.11-2.49.81-3.31,2.27-1.75,3.12-2.31,6.68-5.62,8.71-1.76,1.08-6.16,2.6-7.34,3.83-.45.47-.77,1.18-.84,1.83-.62,5.15,1.71,7.5-1.35,12.74-1.03,1.77-3.77,4.77-3.77,6.7,0,2.59,4.35,6.41,5.11,9.25.87,3.23-.84,9.16.45,11.45.86,1.52,5.97,3.32,7.74,4.4,1.57.96,2.11,1.73,3.04,3.28,1.03,1.73,2.73,6.61,4.33,7.33,1.84.82,5.75-.08,7.89-.13,5.2-.14,6.75,3.13,10.74,5.07,1.45.7,2.11.7,3.56,0,4.04-1.95,5.48-5.2,10.74-5.07,2.15.06,6.44,1.05,8.21-.03s3.52-7.41,5.61-9.45,7.06-3.05,8.77-4.84c1.57-1.64.63-4.93.59-6.92-.06-2.7-.29-4.34,1.03-6.76,1.08-1.98,4.35-5.51,4.35-7.58,0-2.11-3.54-5.93-4.59-8.06-1.96-3.97.6-9.85-.97-12.63-1.11-1.95-7.3-3.48-9.29-5.53-2.11-2.17-3.74-8.54-5.82-9.49-1.88-.86-6.15.1-8.37.14-.85.02-1.8-.09-2.61-.33-2.97-.85-7.24-5.62-9.97-5.22ZM95.09,122.06c-4.85.54-7.86-4.12-12.09-5.54l-9.3.55-10.19,21.99c4.8-2.29,9.35-5.21,14.26-7.22.79.14,1.67.58,1.85,1.44l3.2,14.77,12.27-25.99ZM124.72,139.07l-10.19-21.99-9.09-.59c-.88.06-3.93,1.87-4.53,2.54-.64.72-3.66,7.41-4.17,8.71-.14.37-.42.83-.38,1.22l9.05,19.1,3.2-14.77c.36-1.24,1.87-1.77,2.96-1.11l13.14,6.89Z"/>
        <path d="M90.91,48.53c29.67-2.62,43.58,34.77,19.9,51.72-20.39,14.59-48.41-2.34-45.08-27.1,1.69-12.58,12.35-23.48,25.18-24.62ZM91.64,52.42c-16.11,1.44-26.24,18.26-20.61,33.33,7.11,19.03,33.46,21.59,44.08,4.22s-3.09-39.38-23.47-37.56Z"/>
        <path d="M100.97,68.81l12.41,1.56c1.1.3,1.6,1.4,1.39,2.49-.28,1.47-8.19,7.46-9.41,9.27l2.35,12.15c0,1.23-1.45,2.4-2.66,1.92l-11.01-5.91-10.84,5.91c-1.2.48-2.66-.68-2.66-1.92l2.35-12.15-9.19-8.76c-.65-1.12-.11-2.66,1.16-3l12.41-1.56,5.19-11.21c.77-1.22,2.55-1.22,3.33,0l5.19,11.21ZM94.36,63.52c-.41-.44-.41.17-.51.35-.82,1.6-3.18,7.65-4.22,8.4-1.44,1.04-7.79.88-9.84,1.45l4.99,4.61c.87,1.05,2.27,1.7,2.24,3.22-.02,1.26-1.92,8.56-1.63,8.94l7.59-4.18c.72-.3,1.58-.3,2.3,0l7.59,4.18c.28-.37-1.61-7.67-1.63-8.94-.02-1.34,1.32-2.32,2.24-3.22,1.58-1.54,3.34-3.01,4.99-4.49-2.77-.75-6.06-.55-8.81-1.15-.37-.08-.73-.2-1.03-.42-.81-.59-3.39-6.47-4.05-7.86-.14-.29-.16-.86-.19-.89Z"/>
      </g>
    </g>
  </g>
</svg>